{"title":"Blair Witch 2016 Movies HD Cam XviD AAC New Source +Sample ☻rDX☻","uid":15874879,"size":739471136,"categoryP":"video","categoryS":"movies","magnet":"?xt=urn:btih:629d33500e5b104589a92fc968f88f33067c27be&amp;dn=Blair+Witch+2016+Movies+HD+Cam+XviD+AAC+New+Source+%2BSample+%E2%98%BBrDX%E2%98%BB&amp;tr=udp%3A%2F%2Ftracker.leechers-paradise.org%3A6969&amp;tr=udp%3A%2F%2Fzer0day.ch%3A1337&amp;tr=udp%3A%2F%2Fopen.demonii.com%3A1337&amp;tr=udp%3A%2F%2Ftracker.coppersurfer.tk%3A6969&amp;tr=udp%3A%2F%2Fexodus.desync.com%3A6969","seeders":10,"leechers":6,"uploader":"basicssom","files":2,"time":1474490065,"description":"----------------------------------------------------------------\r\nBlair Witch 2016 English Movies HD Cam XviD AAC New Source with Sample ☻rDX☻\r\n\r\nSCREEN SHOTS &amp; POSTER:\r\n  \nhttp://postimage.co.nr/2016/9/course/index.htm  \nhttp://postimage.co.nr/2016/9/course/1.html  \nhttp://postimage.co.nr/2016/9/course/2.html  \nhttp://postimage.co.nr/2016/9/course/3.html  \nhttp://postimage.co.nr/2016/9/course/4.html  \nhttp://postimage.co.nr/2016/9/course/5.html  \nhttp://postimage.co.nr/2016/9/course/6.html  \nhttp://postimage.co.nr/2016/9/course/7.html  \nhttp://postimage.co.nr/2016/9/course/8.html  \nhttp://postimage.co.nr/2016/9/course/9.html  \nhttp://postimage.co.nr/2016/9/course/10.html\r\n\r\nFormat                                   : Matroska\r\nFormat version                           : Version 4 / Version 2\r\nFile size                                : 698 MiB\r\nDuration                                 : 1 h 22 min\r\nOverall bit rate                         : 1 187 kb/s\r\nMovie name                               : Blair Witch 2016 English Movies HD Cam XviD AAC New Source ☻rDX☻\r\n\r\nVideo\r\nID                                       : 1\r\nFormat                                   : AVC\r\nFormat/Info                              : Advanced Video Codec\r\nFormat profile                           :   \r\nFormat settings, CABAC                   : Yes\r\nFormat settings, ReFrames                : 4 frames\r\nCodec ID                                 : V_MPEG4/ISO/AVC\r\nDuration                                 : 1 h 22 min\r\nBit rate                                 : 971 kb/s\r\nWidth                                    : 720 pixels\r\nHeight                                   : 392 pixels\r\nDisplay aspect ratio                     : 1.85:1\r\nFrame rate mode                          : Constant\r\nFrame rate                               : 29.970 (30000/1001) FPS\r\nColor space                              : YUV\r\nChroma subsampling                       : 4:2:0\r\nBit depth                                : 8 bits\r\nScan type                                : Progressive\r\nBits/(Pixel*Frame)                       : 0.115\r\nStream size                              : 571 MiB (82%)\r\nTitle                                    : ☻rDX☻\r\nWriting library                          : XviD\r\n\r\nAudio\r\nID                                       : 2\r\nFormat                                   : AC-3\r\nFormat/Info                              : Audio Coding 3\r\nMode extension                           : CM (complete main)\r\nFormat settings, Endianness              : Big\r\nCodec ID                                 : A_AC3\r\nDuration                                 : 1 h 22 min\r\nBit rate mode                            : Constant\r\nBit rate                                 : 192 kb/s\r\nChannel(s)                               : 2 channels\r\nChannel positions                        : Front: L R\r\nSampling rate                            : 48.0 kHz\r\nFrame rate                               : 31.250 FPS (1536 spf)\r\nCompression mode                         : Lossy\r\nDelay relative to video                  : 31 ms\r\nStream size                              : 113 MiB (16%)\r\nTitle                                    : ☻rDX☻\r\nLanguage                                 : English\r\n\r\nIMDB \nhttp://www.imdb.com/title/tt1540011/","torrent":{"xt":"urn:btih:629d33500e5b104589a92fc968f88f33067c27be","amp;dn":"Blair+Witch+2016+Movies+HD+Cam+XviD+AAC+New+Source+%2BSample+%E2%98%BBrDX%E2%98%BB","amp;tr":["udp%3A%2F%2Ftracker.leechers-paradise.org%3A6969","udp%3A%2F%2Fzer0day.ch%3A1337","udp%3A%2F%2Fopen.demonii.com%3A1337","udp%3A%2F%2Ftracker.coppersurfer.tk%3A6969","udp%3A%2F%2Fexodus.desync.com%3A6969"],"infoHash":"629d33500e5b104589a92fc968f88f33067c27be","infoHashBuffer":{"type":"Buffer","data":[98,157,51,80,14,91,16,69,137,169,47,201,104,248,143,51,6,124,39,190]},"announce":[],"urlList":[]}}